<svg width="104" height="104" viewBox="0 0 104 104" fill="none" xmlns="http://www.w3.org/2000/svg">
<g filter="url(#filter0_dd_309_729)">
<rect x="12" y="2" width="80" height="80" rx="40" fill="#4CAF50"/>
<path d="M44.727 52.97V49.82L53.967 41.585C54.687 40.945 55.187 40.34 55.467 39.77C55.747 39.2 55.887 38.65 55.887 38.12C55.887 37.4 55.732 36.76 55.422 36.2C55.112 35.63 54.682 35.18 54.132 34.85C53.592 34.52 52.967 34.355 52.257 34.355C51.507 34.355 50.842 34.53 50.262 34.88C49.692 35.22 49.247 35.675 48.927 36.245C48.607 36.815 48.457 37.43 48.477 38.09H44.757C44.757 36.65 45.077 35.395 45.717 34.325C46.367 33.255 47.257 32.425 48.387 31.835C49.527 31.245 50.842 30.95 52.332 30.95C53.712 30.95 54.952 31.26 56.052 31.88C57.152 32.49 58.017 33.34 58.647 34.43C59.277 35.51 59.592 36.755 59.592 38.165C59.592 39.195 59.452 40.06 59.172 40.76C58.892 41.46 58.472 42.105 57.912 42.695C57.362 43.285 56.677 43.94 55.857 44.66L49.302 50.465L48.972 49.565H59.592V52.97H44.727Z" fill="white"/>
</g>
<defs>
<filter id="filter0_dd_309_729" x="0" y="0" width="104" height="104" filterUnits="userSpaceOnUse" color-interpolation-filters="sRGB">
<feFlood flood-opacity="0" result="BackgroundImageFix"/>
<feColorMatrix in="SourceAlpha" type="matrix" values="0 0 0 0 0 0 0 0 0 0 0 0 0 0 0 0 0 0 127 0" result="hardAlpha"/>
<feMorphology radius="4" operator="erode" in="SourceAlpha" result="effect1_dropShadow_309_729"/>
<feOffset dy="4"/>
<feGaussianBlur stdDeviation="3"/>
<feComposite in2="hardAlpha" operator="out"/>
<feColorMatrix type="matrix" values="0 0 0 0 0 0 0 0 0 0 0 0 0 0 0 0 0 0 0.1 0"/>
<feBlend mode="normal" in2="BackgroundImageFix" result="effect1_dropShadow_309_729"/>
<feColorMatrix in="SourceAlpha" type="matrix" values="0 0 0 0 0 0 0 0 0 0 0 0 0 0 0 0 0 0 127 0" result="hardAlpha"/>
<feMorphology radius="3" operator="erode" in="SourceAlpha" result="effect2_dropShadow_309_729"/>
<feOffset dy="10"/>
<feGaussianBlur stdDeviation="7.5"/>
<feComposite in2="hardAlpha" operator="out"/>
<feColorMatrix type="matrix" values="0 0 0 0 0 0 0 0 0 0 0 0 0 0 0 0 0 0 0.1 0"/>
<feBlend mode="normal" in2="effect1_dropShadow_309_729" result="effect2_dropShadow_309_729"/>
<feBlend mode="normal" in="SourceGraphic" in2="effect2_dropShadow_309_729" result="shape"/>
</filter>
</defs>
</svg>
