<svg width="104" height="104" viewBox="0 0 104 104" fill="none" xmlns="http://www.w3.org/2000/svg">
<g filter="url(#filter0_dd_309_731)">
<rect x="12" y="2" width="80" height="80" rx="40" fill="#4CAF50"/>
<path d="M51.7004 53.405C50.6204 53.405 49.6004 53.195 48.6404 52.775C47.6804 52.355 46.8454 51.76 46.1354 50.99C45.4354 50.22 44.9304 49.31 44.6204 48.26L48.1154 47.315C48.3654 48.175 48.8204 48.84 49.4804 49.31C50.1504 49.77 50.8854 49.995 51.6854 49.985C52.3954 49.985 53.0304 49.82 53.5904 49.49C54.1504 49.16 54.5904 48.715 54.9104 48.155C55.2304 47.585 55.3904 46.95 55.3904 46.25C55.3904 45.18 55.0454 44.285 54.3554 43.565C53.6654 42.845 52.7754 42.485 51.6854 42.485C51.3554 42.485 51.0304 42.53 50.7104 42.62C50.4004 42.71 50.1004 42.835 49.8104 42.995L48.1604 40.145L55.4204 33.935L55.7354 34.805H45.4604V31.4H58.7054V34.82L52.8704 40.43L52.8404 39.365C54.1504 39.455 55.2654 39.82 56.1854 40.46C57.1154 41.1 57.8254 41.925 58.3154 42.935C58.8154 43.945 59.0654 45.05 59.0654 46.25C59.0654 47.61 58.7304 48.83 58.0604 49.91C57.4004 50.99 56.5104 51.845 55.3904 52.475C54.2804 53.095 53.0504 53.405 51.7004 53.405Z" fill="white"/>
</g>
<defs>
<filter id="filter0_dd_309_731" x="0" y="0" width="104" height="104" filterUnits="userSpaceOnUse" color-interpolation-filters="sRGB">
<feFlood flood-opacity="0" result="BackgroundImageFix"/>
<feColorMatrix in="SourceAlpha" type="matrix" values="0 0 0 0 0 0 0 0 0 0 0 0 0 0 0 0 0 0 127 0" result="hardAlpha"/>
<feMorphology radius="4" operator="erode" in="SourceAlpha" result="effect1_dropShadow_309_731"/>
<feOffset dy="4"/>
<feGaussianBlur stdDeviation="3"/>
<feComposite in2="hardAlpha" operator="out"/>
<feColorMatrix type="matrix" values="0 0 0 0 0 0 0 0 0 0 0 0 0 0 0 0 0 0 0.1 0"/>
<feBlend mode="normal" in2="BackgroundImageFix" result="effect1_dropShadow_309_731"/>
<feColorMatrix in="SourceAlpha" type="matrix" values="0 0 0 0 0 0 0 0 0 0 0 0 0 0 0 0 0 0 127 0" result="hardAlpha"/>
<feMorphology radius="3" operator="erode" in="SourceAlpha" result="effect2_dropShadow_309_731"/>
<feOffset dy="10"/>
<feGaussianBlur stdDeviation="7.5"/>
<feComposite in2="hardAlpha" operator="out"/>
<feColorMatrix type="matrix" values="0 0 0 0 0 0 0 0 0 0 0 0 0 0 0 0 0 0 0.1 0"/>
<feBlend mode="normal" in2="effect1_dropShadow_309_731" result="effect2_dropShadow_309_731"/>
<feBlend mode="normal" in="SourceGraphic" in2="effect2_dropShadow_309_731" result="shape"/>
</filter>
</defs>
</svg>
