<svg width="56" height="56" viewBox="0 0 56 56" fill="none" xmlns="http://www.w3.org/2000/svg">
<path d="M4.66663 51.3346L37.3333 18.668" stroke="#00A63E" stroke-width="3.5" stroke-linecap="round" stroke-linejoin="round"/>
<path d="M8.09668 29.238L11.6667 25.668L15.2367 29.238C16.7613 30.7686 17.6173 32.8409 17.6173 35.0013C17.6173 37.1617 16.7613 39.234 15.2367 40.7646L11.6667 44.3346L8.09668 40.7646C6.57207 39.234 5.71606 37.1617 5.71606 35.0013C5.71606 32.8409 6.57207 30.7686 8.09668 29.238Z" stroke="#00A63E" stroke-width="3.5" stroke-linecap="round" stroke-linejoin="round"/>
<path d="M17.43 19.902L21 16.332L24.57 19.902C26.0947 21.4326 26.9507 23.505 26.9507 25.6654C26.9507 27.8257 26.0947 29.8981 24.57 31.4287L21 34.9987L17.43 31.4287C15.9054 29.8981 15.0494 27.8257 15.0494 25.6654C15.0494 23.505 15.9054 21.4326 17.43 19.902Z" stroke="#00A63E" stroke-width="3.5" stroke-linecap="round" stroke-linejoin="round"/>
<path d="M26.7633 10.57L30.3333 7L33.9033 10.57C35.4279 12.1006 36.2839 14.173 36.2839 16.3333C36.2839 18.4937 35.4279 20.5661 33.9033 22.0967L30.3333 25.6667L26.7633 22.0967C25.2387 20.5661 24.3827 18.4937 24.3827 16.3333C24.3827 14.173 25.2387 12.1006 26.7633 10.57Z" stroke="#00A63E" stroke-width="3.5" stroke-linecap="round" stroke-linejoin="round"/>
<path d="M46.6667 4.66797H51.3334V9.33464C51.3334 11.81 50.35 14.184 48.5997 15.9343C46.8494 17.6846 44.4754 18.668 42 18.668H37.3334V14.0013C37.3334 11.5259 38.3167 9.15198 40.067 7.40164C41.8174 5.6513 44.1914 4.66797 46.6667 4.66797Z" stroke="#00A63E" stroke-width="3.5" stroke-linecap="round" stroke-linejoin="round"/>
<path d="M26.7633 40.7634L30.3333 44.3334L26.7633 47.9034C25.2327 49.428 23.1603 50.284 21 50.284C18.8396 50.284 16.7672 49.428 15.2366 47.9034L11.6666 44.3334L15.2366 40.7634C16.7672 39.2388 18.8396 38.3828 21 38.3828C23.1603 38.3828 25.2327 39.2388 26.7633 40.7634Z" stroke="#00A63E" stroke-width="3.5" stroke-linecap="round" stroke-linejoin="round"/>
<path d="M36.0967 31.4314L39.6667 35.0014L36.0967 38.5714C34.5661 40.096 32.4937 40.952 30.3333 40.952C28.173 40.952 26.1006 40.096 24.57 38.5714L21 35.0014L24.57 31.4314C26.1006 29.9068 28.173 29.0508 30.3333 29.0508C32.4937 29.0508 34.5661 29.9068 36.0967 31.4314Z" stroke="#00A63E" stroke-width="3.5" stroke-linecap="round" stroke-linejoin="round"/>
<path d="M45.43 22.0955L49 25.6655L45.43 29.2355C43.8994 30.7601 41.8271 31.6161 39.6667 31.6161C37.5063 31.6161 35.434 30.7601 33.9034 29.2355L30.3334 25.6655L33.9034 22.0955C35.434 20.5709 37.5063 19.7148 39.6667 19.7148C41.8271 19.7148 43.8994 20.5709 45.43 22.0955Z" stroke="#00A63E" stroke-width="3.5" stroke-linecap="round" stroke-linejoin="round"/>
</svg>
