<svg width="56" height="56" viewBox="0 0 56 56" fill="none" xmlns="http://www.w3.org/2000/svg">
<path d="M34.3 14.6981C33.8725 15.1342 33.633 15.7207 33.633 16.3314C33.633 16.9422 33.8725 17.5286 34.3 17.9647L38.0334 21.6981C38.4695 22.1256 39.0559 22.3651 39.6667 22.3651C40.2774 22.3651 40.8639 22.1256 41.3 21.6981L50.0967 12.9014C51.27 15.4942 51.6252 18.383 51.1151 21.1828C50.605 23.9825 49.2537 26.5604 47.2413 28.5727C45.229 30.5851 42.6512 31.9364 39.8514 32.4465C37.0516 32.9566 34.1628 32.6014 31.57 31.4281L15.4467 47.5514C14.5184 48.4797 13.2594 49.0012 11.9467 49.0012C10.6339 49.0012 9.37495 48.4797 8.4467 47.5514C7.51844 46.6232 6.99695 45.3642 6.99695 44.0514C6.99695 42.7387 7.51844 41.4797 8.4467 40.5514L24.57 24.4281C23.3967 21.8353 23.0415 18.9465 23.5516 16.1467C24.0618 13.3469 25.413 10.7691 27.4254 8.75676C29.4377 6.74442 32.0156 5.39314 34.8154 4.88301C37.6151 4.37288 40.5039 4.72813 43.0967 5.90141L34.3234 14.6747L34.3 14.6981Z" stroke="#155DFC" stroke-width="3.5" stroke-linecap="round" stroke-linejoin="round"/>
</svg>
