<svg width="56" height="56" viewBox="0 0 56 56" fill="none" xmlns="http://www.w3.org/2000/svg">
<path d="M28.0001 48.8599C31.5001 48.8599 34.4167 51.3332 37.3334 51.3332C44.3334 51.3332 51.3334 32.6665 51.3334 22.8198C51.2539 19.7975 49.9829 16.9292 47.7976 14.84C45.6122 12.7507 42.6896 11.6101 39.6667 11.6665C34.4867 11.6665 30.3334 15.0265 28.0001 16.3332C25.6667 15.0265 21.5134 11.6665 16.3334 11.6665C13.3088 11.6039 10.3827 12.7425 8.19598 14.833C6.00926 16.9236 4.74019 19.7955 4.66675 22.8198C4.66675 32.6665 11.6667 51.3332 18.6667 51.3332C21.5834 51.3332 24.5001 48.8599 28.0001 48.8599Z" stroke="#E7000B" stroke-width="3.5" stroke-linecap="round" stroke-linejoin="round"/>
<path d="M23.3333 4.66797C25.6666 5.83464 27.9999 9.33464 27.9999 16.3346" stroke="#E7000B" stroke-width="3.5" stroke-linecap="round" stroke-linejoin="round"/>
</svg>
