<svg width="64" height="64" viewBox="0 0 64 64" fill="none" xmlns="http://www.w3.org/2000/svg">
<rect width="64" height="64" rx="32" fill="#4CAF50" fill-opacity="0.1"/>
<path d="M37.3333 44V41.3333C37.3333 39.9188 36.7714 38.5623 35.7712 37.5621C34.771 36.5619 33.4144 36 32 36H24C22.5855 36 21.2289 36.5619 20.2287 37.5621C19.2285 38.5623 18.6666 39.9188 18.6666 41.3333V44" stroke="#4CAF50" stroke-width="2.66667" stroke-linecap="round" stroke-linejoin="round"/>
<path d="M28 30.6667C30.9455 30.6667 33.3333 28.2789 33.3333 25.3333C33.3333 22.3878 30.9455 20 28 20C25.0544 20 22.6666 22.3878 22.6666 25.3333C22.6666 28.2789 25.0544 30.6667 28 30.6667Z" stroke="#4CAF50" stroke-width="2.66667" stroke-linecap="round" stroke-linejoin="round"/>
<path d="M45.3334 43.9985V41.3319C45.3325 40.1502 44.9392 39.0022 44.2152 38.0683C43.4912 37.1344 42.4775 36.4673 41.3334 36.1719" stroke="#4CAF50" stroke-width="2.66667" stroke-linecap="round" stroke-linejoin="round"/>
<path d="M37.3334 20.1719C38.4806 20.4656 39.4974 21.1328 40.2236 22.0683C40.9497 23.0038 41.3438 24.1543 41.3438 25.3385C41.3438 26.5228 40.9497 27.6733 40.2236 28.6088C39.4974 29.5443 38.4806 30.2115 37.3334 30.5052" stroke="#4CAF50" stroke-width="2.66667" stroke-linecap="round" stroke-linejoin="round"/>
</svg>
