<svg width="56" height="56" viewBox="0 0 56 56" fill="none" xmlns="http://www.w3.org/2000/svg">
<path d="M29.1667 25.6667C32.3884 25.6667 35 23.055 35 19.8333C35 16.6117 32.3884 14 29.1667 14C25.945 14 23.3334 16.6117 23.3334 19.8333C23.3334 23.055 25.945 25.6667 29.1667 25.6667Z" stroke="#E17100" stroke-width="3.5" stroke-linecap="round" stroke-linejoin="round"/>
<path d="M29.1667 4.66797C25.9169 4.66603 22.7523 5.70802 20.1394 7.64041C17.5265 9.5728 15.6033 12.2934 14.6534 15.4013C12.0867 22.7046 12.8334 24.5013 7.23339 29.588C6.1175 30.5028 5.3116 31.7401 4.92598 33.1306C4.54036 34.5211 4.59387 35.9968 5.07919 37.3557C5.56451 38.7146 6.45792 39.8903 7.63714 40.7219C8.81636 41.5535 10.2238 42.0003 11.6667 42.0013C21.0001 42.0013 31.2667 37.8013 38.2667 31.968C40.8133 30.058 42.6944 27.3953 43.6435 24.3568C44.5926 21.3184 44.5617 18.0584 43.5551 15.0385C42.5485 12.0187 40.6172 9.39206 38.0348 7.5308C35.4525 5.66954 32.3499 4.66797 29.1667 4.66797Z" stroke="#E17100" stroke-width="3.5" stroke-linecap="round" stroke-linejoin="round"/>
<path d="M43.1666 14L48.2766 24.5C48.7607 26.0081 49.0048 27.5828 49 29.1667C49.0018 31.5215 48.4544 33.8444 47.4013 35.9506C46.3481 38.0569 44.8183 39.8885 42.9333 41.3C35.9333 47.1333 25.6666 51.3333 16.3333 51.3333C15.0342 51.3316 13.7613 50.9683 12.6569 50.2842C11.5525 49.6002 10.6602 48.6223 10.08 47.46L5.59998 38.5" stroke="#E17100" stroke-width="3.5" stroke-linecap="round" stroke-linejoin="round"/>
</svg>
