<svg width="64" height="64" viewBox="0 0 64 64" fill="none" xmlns="http://www.w3.org/2000/svg">
<rect width="64" height="64" rx="16" fill="#4CAF50" fill-opacity="0.1"/>
<path d="M28 32L30.6667 34.6667L36 29.3333M44 32C44 33.5759 43.6896 35.1363 43.0866 36.5922C42.4835 38.0481 41.5996 39.371 40.4853 40.4853C39.371 41.5996 38.0481 42.4835 36.5922 43.0866C35.1363 43.6896 33.5759 44 32 44C30.4241 44 28.8637 43.6896 27.4078 43.0866C25.9519 42.4835 24.629 41.5996 23.5147 40.4853C22.4004 39.371 21.5165 38.0481 20.9134 36.5922C20.3104 35.1363 20 33.5759 20 32C20 28.8174 21.2643 25.7652 23.5147 23.5147C25.7652 21.2643 28.8174 20 32 20C35.1826 20 38.2348 21.2643 40.4853 23.5147C42.7357 25.7652 44 28.8174 44 32Z" stroke="#4CAF50" stroke-width="2.66667" stroke-linecap="round" stroke-linejoin="round"/>
</svg>
