<svg width="64" height="65" viewBox="0 0 64 65" fill="none" xmlns="http://www.w3.org/2000/svg">
<rect y="0.5" width="64" height="64" rx="16" fill="#4CAF50" fill-opacity="0.1"/>
<path d="M28 41.8333V33.8333C28 33.1261 27.719 32.4478 27.219 31.9477C26.7189 31.4476 26.0406 31.1667 25.3333 31.1667H22.6667C21.9594 31.1667 21.2811 31.4476 20.781 31.9477C20.281 32.4478 20 33.1261 20 33.8333V41.8333C20 42.5406 20.281 43.2189 20.781 43.719C21.2811 44.219 21.9594 44.5 22.6667 44.5H25.3333C26.0406 44.5 26.7189 44.219 27.219 43.719C27.719 43.2189 28 42.5406 28 41.8333ZM28 41.8333V28.5C28 27.7928 28.281 27.1145 28.781 26.6144C29.2811 26.1143 29.9594 25.8333 30.6667 25.8333H33.3333C34.0406 25.8333 34.7189 26.1143 35.219 26.6144C35.719 27.1145 36 27.7928 36 28.5V41.8333M28 41.8333C28 42.5406 28.281 43.2189 28.781 43.719C29.2811 44.219 29.9594 44.5 30.6667 44.5H33.3333C34.0406 44.5 34.7189 44.219 35.219 43.719C35.719 43.2189 36 42.5406 36 41.8333M36 41.8333V23.1667C36 22.4594 36.281 21.7811 36.781 21.281C37.2811 20.781 37.9594 20.5 38.6667 20.5H41.3333C42.0406 20.5 42.7189 20.781 43.219 21.281C43.719 21.7811 44 22.4594 44 23.1667V41.8333C44 42.5406 43.719 43.2189 43.219 43.719C42.7189 44.219 42.0406 44.5 41.3333 44.5H38.6667C37.9594 44.5 37.2811 44.219 36.781 43.719C36.281 43.2189 36 42.5406 36 41.8333Z" stroke="#4CAF50" stroke-width="2.66667" stroke-linecap="round" stroke-linejoin="round"/>
</svg>
