<svg width="64" height="65" viewBox="0 0 64 65" fill="none" xmlns="http://www.w3.org/2000/svg">
<rect y="0.5" width="64" height="64" rx="16" fill="#4CAF50" fill-opacity="0.1"/>
<path d="M32.0002 36.5V39.1667M24.0002 44.5H40.0002C40.7074 44.5 41.3857 44.219 41.8858 43.719C42.3859 43.2189 42.6668 42.5406 42.6668 41.8333V33.8333C42.6668 33.1261 42.3859 32.4478 41.8858 31.9477C41.3857 31.4476 40.7074 31.1667 40.0002 31.1667H24.0002C23.2929 31.1667 22.6146 31.4476 22.1145 31.9477C21.6144 32.4478 21.3335 33.1261 21.3335 33.8333V41.8333C21.3335 42.5406 21.6144 43.2189 22.1145 43.719C22.6146 44.219 23.2929 44.5 24.0002 44.5ZM37.3335 31.1667V25.8333C37.3335 24.4188 36.7716 23.0623 35.7714 22.0621C34.7712 21.0619 33.4147 20.5 32.0002 20.5C30.5857 20.5 29.2291 21.0619 28.2289 22.0621C27.2287 23.0623 26.6668 24.4188 26.6668 25.8333V31.1667H37.3335Z" stroke="#4CAF50" stroke-width="2.66667" stroke-linecap="round" stroke-linejoin="round"/>
</svg>
