<svg width="40" height="40" viewBox="0 0 40 40" fill="none" xmlns="http://www.w3.org/2000/svg">
<rect width="40" height="40" rx="20" fill="#4CAF50" fill-opacity="0.1"/>
<path d="M26.6668 20.8331C26.6668 24.9997 23.7502 27.0831 20.2835 28.2914C20.102 28.3529 19.9048 28.35 19.7252 28.2831C16.2502 27.0831 13.3335 24.9997 13.3335 20.8331V14.9997C13.3335 14.7787 13.4213 14.5667 13.5776 14.4105C13.7339 14.2542 13.9458 14.1664 14.1668 14.1664C15.8335 14.1664 17.9168 13.1664 19.3668 11.8997C19.5434 11.7489 19.768 11.666 20.0002 11.666C20.2324 11.666 20.457 11.7489 20.6335 11.8997C22.0918 13.1747 24.1668 14.1664 25.8335 14.1664C26.0545 14.1664 26.2665 14.2542 26.4228 14.4105C26.579 14.5667 26.6668 14.7787 26.6668 14.9997V20.8331Z" stroke="#4CAF50" stroke-width="1.66667" stroke-linecap="round" stroke-linejoin="round"/>
</svg>
