<svg width="17" height="17" viewBox="0 0 17 17" fill="none" xmlns="http://www.w3.org/2000/svg">
<path d="M1.85352 5.16732L4.79352 2.22732C4.91755 2.10254 5.06506 2.00354 5.22754 1.93604C5.39001 1.86853 5.56424 1.83385 5.74018 1.83398H11.3002C11.4761 1.83385 11.6504 1.86853 11.8128 1.93604C11.9753 2.00354 12.1228 2.10254 12.2468 2.22732L15.1868 5.16732" stroke="white" stroke-width="1.33333" stroke-linecap="round" stroke-linejoin="round"/>
<path d="M3.18652 8.5V13.8333C3.18652 14.187 3.327 14.5261 3.57705 14.7761C3.8271 15.0262 4.16623 15.1667 4.51986 15.1667H12.5199C12.8735 15.1667 13.2126 15.0262 13.4627 14.7761C13.7127 14.5261 13.8532 14.187 13.8532 13.8333V8.5" stroke="white" stroke-width="1.33333" stroke-linecap="round" stroke-linejoin="round"/>
<path d="M10.52 15.166V12.4993C10.52 12.1457 10.3795 11.8066 10.1295 11.5565C9.87945 11.3065 9.54031 11.166 9.18669 11.166H7.85335C7.49973 11.166 7.16059 11.3065 6.91054 11.5565C6.6605 11.8066 6.52002 12.1457 6.52002 12.4993V15.166" stroke="white" stroke-width="1.33333" stroke-linecap="round" stroke-linejoin="round"/>
<path d="M1.85352 5.16602H15.1868" stroke="white" stroke-width="1.33333" stroke-linecap="round" stroke-linejoin="round"/>
<path d="M15.1868 5.16602V7.16602C15.1868 7.51964 15.0464 7.85878 14.7963 8.10882C14.5463 8.35887 14.2071 8.49935 13.8535 8.49935C13.464 8.47791 13.092 8.33051 12.7935 8.07935C12.714 8.02187 12.6183 7.99092 12.5202 7.99092C12.422 7.99092 12.3264 8.02187 12.2468 8.07935C11.9484 8.33051 11.5764 8.47791 11.1868 8.49935C10.7973 8.47791 10.4253 8.33051 10.1268 8.07935C10.0473 8.02187 9.95166 7.99092 9.85352 7.99092C9.75537 7.99092 9.65973 8.02187 9.58018 8.07935C9.2817 8.33051 8.90969 8.47791 8.52018 8.49935C8.13067 8.47791 7.75867 8.33051 7.46018 8.07935C7.38064 8.02187 7.28499 7.99092 7.18685 7.99092C7.08871 7.99092 6.99306 8.02187 6.91352 8.07935C6.61503 8.33051 6.24303 8.47791 5.85352 8.49935C5.46401 8.47791 5.092 8.33051 4.79352 8.07935C4.71397 8.02187 4.61832 7.99092 4.52018 7.99092C4.42204 7.99092 4.3264 8.02187 4.24685 8.07935C3.94836 8.33051 3.57636 8.47791 3.18685 8.49935C2.83323 8.49935 2.49409 8.35887 2.24404 8.10882C1.99399 7.85878 1.85352 7.51964 1.85352 7.16602V5.16602" stroke="white" stroke-width="1.33333" stroke-linecap="round" stroke-linejoin="round"/>
</svg>
