<svg width="17" height="17" viewBox="0 0 17 17" fill="none" xmlns="http://www.w3.org/2000/svg">
<path d="M2.0835 5.16732L5.0235 2.22732C5.14753 2.10254 5.29504 2.00354 5.45752 1.93604C5.61999 1.86853 5.79422 1.83385 5.97016 1.83398H11.5302C11.7061 1.83385 11.8803 1.86853 12.0428 1.93604C12.2053 2.00354 12.3528 2.10254 12.4768 2.22732L15.4168 5.16732" stroke="#4CAF50" stroke-width="1.33333" stroke-linecap="round" stroke-linejoin="round"/>
<path d="M3.4165 8.5V13.8333C3.4165 14.187 3.55698 14.5261 3.80703 14.7761C4.05708 15.0262 4.39622 15.1667 4.74984 15.1667H12.7498C13.1035 15.1667 13.4426 15.0262 13.6926 14.7761C13.9427 14.5261 14.0832 14.187 14.0832 13.8333V8.5" stroke="#4CAF50" stroke-width="1.33333" stroke-linecap="round" stroke-linejoin="round"/>
<path d="M10.75 15.166V12.4993C10.75 12.1457 10.6095 11.8066 10.3595 11.5565C10.1094 11.3065 9.77029 11.166 9.41667 11.166H8.08333C7.72971 11.166 7.39057 11.3065 7.14052 11.5565C6.89048 11.8066 6.75 12.1457 6.75 12.4993V15.166" stroke="#4CAF50" stroke-width="1.33333" stroke-linecap="round" stroke-linejoin="round"/>
<path d="M2.0835 5.16602H15.4168" stroke="#4CAF50" stroke-width="1.33333" stroke-linecap="round" stroke-linejoin="round"/>
<path d="M15.4168 5.16602V7.16602C15.4168 7.51964 15.2764 7.85878 15.0263 8.10882C14.7763 8.35887 14.4371 8.49935 14.0835 8.49935C13.694 8.47791 13.322 8.33051 13.0235 8.07935C12.944 8.02187 12.8483 7.99092 12.7502 7.99092C12.652 7.99092 12.5564 8.02187 12.4768 8.07935C12.1783 8.33051 11.8063 8.47791 11.4168 8.49935C11.0273 8.47791 10.6553 8.33051 10.3568 8.07935C10.2773 8.02187 10.1816 7.99092 10.0835 7.99092C9.98535 7.99092 9.88971 8.02187 9.81016 8.07935C9.51168 8.33051 9.13967 8.47791 8.75016 8.49935C8.36065 8.47791 7.98865 8.33051 7.69016 8.07935C7.61062 8.02187 7.51497 7.99092 7.41683 7.99092C7.31869 7.99092 7.22304 8.02187 7.1435 8.07935C6.84501 8.33051 6.47301 8.47791 6.0835 8.49935C5.69399 8.47791 5.32198 8.33051 5.0235 8.07935C4.94395 8.02187 4.84831 7.99092 4.75016 7.99092C4.65202 7.99092 4.55638 8.02187 4.47683 8.07935C4.17834 8.33051 3.80634 8.47791 3.41683 8.49935C3.06321 8.49935 2.72407 8.35887 2.47402 8.10882C2.22397 7.85878 2.0835 7.51964 2.0835 7.16602V5.16602" stroke="#4CAF50" stroke-width="1.33333" stroke-linecap="round" stroke-linejoin="round"/>
</svg>
