<svg width="56" height="56" viewBox="0 0 56 56" fill="none" xmlns="http://www.w3.org/2000/svg">
<path d="M20.16 32.6661L15.3766 27.9061M35.7933 34.9994L30.0533 29.2594M5.29663 50.6328C5.29663 50.6328 28.3266 42.4661 35 35.7928C35.9759 34.8184 36.7504 33.6613 37.2791 32.3875C37.8079 31.1138 38.0806 29.7484 38.0817 28.3693C38.0828 26.9902 37.8122 25.6244 37.2854 24.3499C36.7587 23.0753 35.986 21.917 35.0116 20.9411C34.0372 19.9652 32.8801 19.1907 31.6064 18.6619C30.3327 18.1332 28.9673 17.8605 27.5882 17.8594C26.2091 17.8583 24.8433 18.1289 23.5688 18.6556C22.2942 19.1824 21.1359 19.955 20.16 20.9294C13.4633 27.6261 5.29663 50.6328 5.29663 50.6328Z" stroke="#F54900" stroke-width="3.5" stroke-linecap="round" stroke-linejoin="round"/>
<path d="M51.3333 20.9987C51.3333 20.9987 48.23 16.332 43.1667 16.332C39.34 16.332 35 20.9987 35 20.9987C35 20.9987 38.1033 25.6654 43.1667 25.6654C48.23 25.6654 51.3333 20.9987 51.3333 20.9987Z" stroke="#F54900" stroke-width="3.5" stroke-linecap="round" stroke-linejoin="round"/>
<path d="M35 4.66797C35 4.66797 30.3334 7.7713 30.3334 12.8346C30.3334 17.898 35 21.0013 35 21.0013C35 21.0013 39.6667 16.708 39.6667 12.8346C39.6667 7.7713 35 4.66797 35 4.66797Z" stroke="#F54900" stroke-width="3.5" stroke-linecap="round" stroke-linejoin="round"/>
</svg>
